<svg width="1400" height="1000" viewBox="0 0 1400 1000" fill="none" xmlns="http://www.w3.org/2000/svg">
  <rect width="1400" height="1000" rx="64" fill="#F4F1EA"/>
  <defs>
    <linearGradient id="inkA" x1="362" y1="222" x2="938" y2="792" gradientUnits="userSpaceOnUse">
      <stop stop-color="#1A2A38"/>
      <stop offset="0.55" stop-color="#2B4A5E"/>
      <stop offset="1" stop-color="#5A7A8C"/>
    </linearGradient>
    <linearGradient id="accentA" x1="530" y1="232" x2="685" y2="422" gradientUnits="userSpaceOnUse">
      <stop stop-color="#D67C4A"/>
      <stop offset="1" stop-color="#B95E2C"/>
    </linearGradient>
  </defs>
  <path d="M270 758L486 214H589L806 758H701L654 633H421L374 758H270ZM457 545H619L537 335L457 545Z" fill="url(#inkA)"/>
  <path d="M700 267H1034V353H794V476H996V561H794V758H700V267Z" fill="url(#inkA)"/>
  <path d="M506 168H688" stroke="url(#inkA)" stroke-width="24" stroke-linecap="round"/>
  <path d="M540 168V231" stroke="url(#inkA)" stroke-width="18" stroke-linecap="round"/>
  <path d="M654 168V231" stroke="url(#inkA)" stroke-width="18" stroke-linecap="round"/>
  <rect x="530" y="231" width="164" height="58" rx="22" fill="url(#inkA)"/>
  <path d="M612 289V372" stroke="url(#accentA)" stroke-width="20" stroke-linecap="round"/>
  <path d="M582 404H642" stroke="url(#accentA)" stroke-width="18" stroke-linecap="round"/>
  <path d="M575 438H649" stroke="url(#accentA)" stroke-width="14" stroke-linecap="round" opacity="0.82"/>
  <path d="M567 470H657" stroke="url(#accentA)" stroke-width="10" stroke-linecap="round" opacity="0.65"/>
  <path d="M256 822H1046" stroke="#D4CDC1" stroke-width="10" stroke-linecap="round"/>
</svg>
