<svg width="1200" height="1200" viewBox="0 0 1200 1200" fill="none" xmlns="http://www.w3.org/2000/svg">
  <defs>
    <linearGradient id="v2Gold" x1="258" y1="185" x2="874" y2="941" gradientUnits="userSpaceOnUse">
      <stop stop-color="#FFF6CF"/>
      <stop offset="0.15" stop-color="#FFE28A"/>
      <stop offset="0.38" stop-color="#FFC93A"/>
      <stop offset="0.65" stop-color="#E69A06"/>
      <stop offset="0.84" stop-color="#B96E00"/>
      <stop offset="1" stop-color="#6E3F00"/>
    </linearGradient>
    <linearGradient id="v2Edge" x1="421" y1="224" x2="739" y2="851" gradientUnits="userSpaceOnUse">
      <stop stop-color="#FFF8DD" stop-opacity="0.6"/>
      <stop offset="1" stop-color="#FFF8DD" stop-opacity="0"/>
    </linearGradient>
    <filter id="v2Glow" x="179" y="133" width="848" height="947" filterUnits="userSpaceOnUse" color-interpolation-filters="sRGB">
      <feFlood flood-opacity="0" result="BackgroundImageFix"/>
      <feBlend mode="normal" in="SourceGraphic" in2="BackgroundImageFix" result="shape"/>
      <feGaussianBlur stdDeviation="16" result="effect1_foregroundBlur"/>
    </filter>
  </defs>
  <rect width="1200" height="1200" rx="116" fill="#040404"/>
  <g opacity="0.18">
    <path d="M0 120H1200" stroke="#151515" stroke-width="2"/>
    <path d="M0 240H1200" stroke="#151515" stroke-width="2"/>
    <path d="M0 360H1200" stroke="#151515" stroke-width="2"/>
    <path d="M0 480H1200" stroke="#151515" stroke-width="2"/>
    <path d="M0 600H1200" stroke="#151515" stroke-width="2"/>
    <path d="M0 720H1200" stroke="#151515" stroke-width="2"/>
    <path d="M0 840H1200" stroke="#151515" stroke-width="2"/>
    <path d="M0 960H1200" stroke="#151515" stroke-width="2"/>
    <path d="M120 0V1200" stroke="#151515" stroke-width="2"/>
    <path d="M240 0V1200" stroke="#151515" stroke-width="2"/>
    <path d="M360 0V1200" stroke="#151515" stroke-width="2"/>
    <path d="M480 0V1200" stroke="#151515" stroke-width="2"/>
    <path d="M600 0V1200" stroke="#151515" stroke-width="2"/>
    <path d="M720 0V1200" stroke="#151515" stroke-width="2"/>
    <path d="M840 0V1200" stroke="#151515" stroke-width="2"/>
    <path d="M960 0V1200" stroke="#151515" stroke-width="2"/>
    <path d="M1080 0V1200" stroke="#151515" stroke-width="2"/>
  </g>
  <g filter="url(#v2Glow)" opacity="0.6">
    <path d="M250 293L476 186V390L374 442V594L476 543V747L250 854V293Z" fill="url(#v2Gold)"/>
    <path d="M319 382L407 339V429L319 472V382Z" fill="#040404" fill-opacity="0.32"/>
    <path d="M541 189L660 189V1011L541 950V189Z" fill="url(#v2Gold)"/>
    <path d="M722 187L956 309V430L842 369V466L947 521V639L842 584V1010L722 948V187Z" fill="url(#v2Gold)"/>
  </g>
  <g>
    <path d="M250 293L476 186V390L374 442V594L476 543V747L250 854V293Z" fill="url(#v2Gold)"/>
    <path d="M541 189L660 189V1011L541 950V189Z" fill="url(#v2Gold)"/>
    <path d="M722 187L956 309V430L842 369V466L947 521V639L842 584V1010L722 948V187Z" fill="url(#v2Gold)"/>
    <path d="M319 382L407 339V429L319 472V382Z" fill="#090909" fill-opacity="0.34"/>
    <path d="M250 293L476 186V390L374 442V594L476 543V747L250 854V293Z" fill="url(#v2Edge)"/>
    <path d="M541 189L660 189V1011L541 950V189Z" fill="url(#v2Edge)"/>
    <path d="M722 187L956 309V430L842 369V466L947 521V639L842 584V1010L722 948V187Z" fill="url(#v2Edge)"/>
  </g>
  <path d="M662 177L682 123" stroke="#FFEAA3" stroke-width="8" stroke-linecap="round" opacity="0.9"/>
  <path d="M680 195L733 174" stroke="#FFEAA3" stroke-width="8" stroke-linecap="round" opacity="0.72"/>
  <path d="M646 194L628 143" stroke="#FFEAA3" stroke-width="8" stroke-linecap="round" opacity="0.72"/>
  <path d="M668 160L675 184L699 191L675 198L668 222L661 198L637 191L661 184L668 160Z" fill="#FFF5C6"/>
</svg>
