<svg width="1200" height="1200" viewBox="0 0 1200 1200" fill="none" xmlns="http://www.w3.org/2000/svg">
  <defs>
    <linearGradient id="goldMain" x1="267" y1="181" x2="888" y2="958" gradientUnits="userSpaceOnUse">
      <stop stop-color="#FCE7A1"/>
      <stop offset="0.28" stop-color="#E2B84D"/>
      <stop offset="0.62" stop-color="#BA7E17"/>
      <stop offset="1" stop-color="#6F4300"/>
    </linearGradient>
    <linearGradient id="goldSide" x1="377" y1="242" x2="769" y2="922" gradientUnits="userSpaceOnUse">
      <stop stop-color="#A66B0F"/>
      <stop offset="1" stop-color="#4B2B00"/>
    </linearGradient>
    <linearGradient id="goldTop" x1="351" y1="164" x2="741" y2="308" gradientUnits="userSpaceOnUse">
      <stop stop-color="#FFF4CA"/>
      <stop offset="1" stop-color="#CC9124"/>
    </linearGradient>
  </defs>
  <g>
    <path d="M239 961V368L479 198H611V329L443 445V589L551 513V646L443 723V961L239 961Z" fill="url(#goldMain)"/>
    <path d="M611 198H929V324H731V474H894V593H731V961H611V198Z" fill="url(#goldMain)"/>
    <path d="M479 198L555 142H687L611 198H479Z" fill="url(#goldTop)"/>
    <path d="M611 198L687 142H1006L929 198H611Z" fill="url(#goldTop)"/>
    <path d="M551 513L627 456V589L551 646V513Z" fill="url(#goldSide)"/>
    <path d="M611 198L687 142V905L611 961V198Z" fill="url(#goldSide)"/>
    <path d="M929 198L1006 142V267L929 324V198Z" fill="url(#goldSide)"/>
    <path d="M894 474L970 417V536L894 593V474Z" fill="url(#goldSide)"/>
    <path d="M239 368L315 311V905L239 961V368Z" fill="url(#goldSide)"/>
    <path d="M443 445L519 389V533L443 589V445Z" fill="#111111" fill-opacity="0.26"/>
  </g>
</svg>
