<svg width="1800" height="700" viewBox="0 0 1800 700" fill="none" xmlns="http://www.w3.org/2000/svg">
  <defs>
    <linearGradient id="v2BrandGold" x1="173" y1="94" x2="1189" y2="618" gradientUnits="userSpaceOnUse">
      <stop stop-color="#FFF6CF"/>
      <stop offset="0.15" stop-color="#FFE28A"/>
      <stop offset="0.38" stop-color="#FFC93A"/>
      <stop offset="0.65" stop-color="#E69A06"/>
      <stop offset="0.84" stop-color="#B96E00"/>
      <stop offset="1" stop-color="#6E3F00"/>
    </linearGradient>
    <filter id="brandSoftGlow" x="0" y="0" width="1800" height="700" filterUnits="userSpaceOnUse" color-interpolation-filters="sRGB">
      <feFlood flood-opacity="0" result="BackgroundImageFix"/>
      <feBlend mode="normal" in="SourceGraphic" in2="BackgroundImageFix" result="shape"/>
      <feGaussianBlur stdDeviation="8" result="effect1_foregroundBlur"/>
    </filter>
  </defs>
  <rect width="1800" height="700" rx="44" fill="#050505"/>
  <g opacity="0.16">
    <path d="M0 100H1800" stroke="#151515" stroke-width="2"/>
    <path d="M0 200H1800" stroke="#151515" stroke-width="2"/>
    <path d="M0 300H1800" stroke="#151515" stroke-width="2"/>
    <path d="M0 400H1800" stroke="#151515" stroke-width="2"/>
    <path d="M0 500H1800" stroke="#151515" stroke-width="2"/>
    <path d="M0 600H1800" stroke="#151515" stroke-width="2"/>
    <path d="M100 0V700" stroke="#151515" stroke-width="2"/>
    <path d="M200 0V700" stroke="#151515" stroke-width="2"/>
    <path d="M300 0V700" stroke="#151515" stroke-width="2"/>
    <path d="M400 0V700" stroke="#151515" stroke-width="2"/>
    <path d="M500 0V700" stroke="#151515" stroke-width="2"/>
    <path d="M600 0V700" stroke="#151515" stroke-width="2"/>
    <path d="M700 0V700" stroke="#151515" stroke-width="2"/>
    <path d="M800 0V700" stroke="#151515" stroke-width="2"/>
    <path d="M900 0V700" stroke="#151515" stroke-width="2"/>
    <path d="M1000 0V700" stroke="#151515" stroke-width="2"/>
    <path d="M1100 0V700" stroke="#151515" stroke-width="2"/>
    <path d="M1200 0V700" stroke="#151515" stroke-width="2"/>
    <path d="M1300 0V700" stroke="#151515" stroke-width="2"/>
    <path d="M1400 0V700" stroke="#151515" stroke-width="2"/>
    <path d="M1500 0V700" stroke="#151515" stroke-width="2"/>
    <path d="M1600 0V700" stroke="#151515" stroke-width="2"/>
    <path d="M1700 0V700" stroke="#151515" stroke-width="2"/>
  </g>
  <g transform="translate(118 108) scale(0.4)">
    <path d="M250 293L476 186V390L374 442V594L476 543V747L250 854V293Z" fill="url(#v2BrandGold)"/>
    <path d="M541 189L660 189V1011L541 950V189Z" fill="url(#v2BrandGold)"/>
    <path d="M722 187L956 309V430L842 369V466L947 521V639L842 584V1010L722 948V187Z" fill="url(#v2BrandGold)"/>
    <path d="M319 382L407 339V429L319 472V382Z" fill="#090909" fill-opacity="0.34"/>
    <path d="M668 160L675 184L699 191L675 198L668 222L661 198L637 191L661 184L668 160Z" fill="#FFF5C6"/>
  </g>
  <g filter="url(#brandSoftGlow)">
    <text x="585" y="295" fill="url(#v2BrandGold)" font-family="Montserrat, Poppins, Arial, sans-serif" font-size="126" font-weight="800" letter-spacing="2">ARTEFORMA</text>
    <text x="685" y="390" fill="#F5F2EB" font-family="Montserrat, Poppins, Arial, sans-serif" font-size="45" font-weight="600" letter-spacing="14">MADE DIFFERENT</text>
  </g>
</svg>
