<svg width="1800" height="700" viewBox="0 0 1800 700" fill="none" xmlns="http://www.w3.org/2000/svg">
  <defs>
    <linearGradient id="v4BrandFront" x1="158" y1="124" x2="1117" y2="598" gradientUnits="userSpaceOnUse">
      <stop stop-color="#FFE9A3"/>
      <stop offset="0.34" stop-color="#E0AF37"/>
      <stop offset="0.7" stop-color="#A96F12"/>
      <stop offset="1" stop-color="#6F4300"/>
    </linearGradient>
    <linearGradient id="v4BrandSide" x1="279" y1="142" x2="458" y2="520" gradientUnits="userSpaceOnUse">
      <stop stop-color="#C88716"/>
      <stop offset="1" stop-color="#5C3400"/>
    </linearGradient>
    <linearGradient id="v4BrandTop" x1="195" y1="114" x2="393" y2="213" gradientUnits="userSpaceOnUse">
      <stop stop-color="#FFF4C7"/>
      <stop offset="1" stop-color="#D29A2C"/>
    </linearGradient>
  </defs>
  <rect width="1800" height="700" fill="#050505"/>
  <g transform="translate(140 112) scale(0.43)">
    <g fill="url(#v4BrandFront)">
      <path d="M278 948L484 252H618L823 948H700L657 790H445L402 948H278ZM478 676H625L551 405L478 676Z"/>
      <path d="M587 252H919V364H705V500H877V606H705V948H587V252Z"/>
    </g>
    <g fill="url(#v4BrandSide)">
      <path d="M618 252L688 202L897 896L823 948L618 252Z"/>
      <path d="M919 252L989 202V315L919 364V252Z"/>
      <path d="M877 500L947 451V557L877 606V500Z"/>
      <path d="M625 676L696 628L766 884L700 948L625 676Z"/>
    </g>
    <g fill="url(#v4BrandTop)">
      <path d="M484 252L553 202H687L618 252H484Z"/>
      <path d="M587 252L657 202H989L919 252H587Z"/>
      <path d="M445 790L515 742H727L657 790H445Z"/>
    </g>
  </g>
  <text x="615" y="352" fill="url(#v4BrandFront)" font-family="Montserrat, Poppins, Arial, sans-serif" font-size="154" font-weight="800" letter-spacing="4">ARTEFORMA</text>
  <text x="628" y="465" fill="#F3EEE5" font-family="Montserrat, Poppins, Arial, sans-serif" font-size="48" font-weight="700" letter-spacing="16">MADE DIFFERENT</text>
</svg>
